<?xml version="1.0" encoding="UTF-8" standalone="no"?>
<!-- Created with Inkscape (http://www.inkscape.org/) -->

<svg
   width="138.12421mm"
   height="36.746086mm"
   viewBox="0 0 138.12421 36.746086"
   version="1.1"
   id="svg1"
   xmlns:xlink="http://www.w3.org/1999/xlink"
   xmlns="http://www.w3.org/2000/svg"
   xmlns:svg="http://www.w3.org/2000/svg">
  <defs
     id="defs1">
    <linearGradient
       xlink:href="#linearGradient7"
       id="linearGradient9"
       gradientUnits="userSpaceOnUse"
       gradientTransform="matrix(0.22632535,-0.00278063,0.00278063,0.22632535,25.528824,3.6922903)"
       x1="33.014538"
       y1="51.306561"
       x2="163.74712"
       y2="149.82063" />
    <linearGradient
       id="linearGradient7">
      <stop
         style="stop-color:#d405ff;stop-opacity:1;"
         offset="0"
         id="stop7" />
      <stop
         style="stop-color:#7612ff;stop-opacity:1;"
         offset="1"
         id="stop8" />
    </linearGradient>
  </defs>
  <g
     id="layer1"
     transform="translate(-12.4379,-10.626956)">
    <g
       id="g1"
       transform="translate(-17.27782,2.7407347)">
      <path
         id="path1-0"
         style="baseline-shift:baseline;display:inline;overflow:visible;vector-effect:none;fill:url(#linearGradient9);stroke-width:0.226343;stroke-linecap:round;stroke-linejoin:round;enable-background:accumulate;stop-color:#000000"
         d="m 48.216363,7.8889853 c -9.986749,0.122671 -18.057415,8.3941197 -17.934721,18.3808437 0.0092,0.83857 0.07817,1.66353 0.199455,2.47135 l 6.651145,-1.86957 0.168557,-0.0473 c -0.01384,-0.21168 -0.02306,-0.42524 -0.0256,-0.640355 -0.07632,-6.207179 4.819872,-11.225113 11.027074,-11.30139 6.20718,-0.07632 11.225123,4.819885 11.3014,11.027065 0.07632,6.2072 -4.819895,11.22517 -11.027074,11.3014 -0.217671,0.002 -0.433959,-0.002 -0.648517,-0.0115 l -0.04197,0.16464 -1.70752,6.69915 c 0.813223,0.10238 1.642472,0.14988 2.483919,0.13973 9.986725,-0.12267 18.057253,-8.39401 17.934559,-18.380758 C 66.4744,15.835565 58.203057,7.7649083 48.216331,7.8876023 Z m 0.218132,18.1641427 -8.739405,2.457151 -8.739383,2.45719 3.80777,3.71533 -5.047757,5.17333 4.894995,4.77618 5.047758,-5.1732 4.292503,4.18826 2.241806,-8.79712 z" />
      <path
         style="font-weight:bold;font-size:33.042px;line-height:1.25;font-family:Helvetica;-inkscape-font-specification:'Helvetica Bold';stroke-width:0.826051"
         d="m 79.724979,23.019094 q -2.339193,0 -3.21034,1.984632 -0.451706,1.04879 -0.451706,2.678449 v 9.519774 h -4.58159 V 19.646833 h 4.436398 v 2.565501 q 0.887281,-1.35536 1.677766,-1.952363 1.419648,-1.064924 3.597516,-1.064924 2.726369,0 4.452531,1.436034 1.742294,1.4199 1.742294,4.727621 V 37.201949 H 82.6772 V 26.5043 q 0,-1.387627 -0.371044,-2.129848 -0.677559,-1.355358 -2.581177,-1.355358 z m 19.95573,10.907404 v 3.436805 l -2.177871,0.08071 q -3.258737,0.11295 -4.452531,-1.12946 -0.774353,-0.79063 -0.774353,-2.436426 V 23.051365 h -2.452119 v -3.27545 h 2.452119 v -4.905107 h 4.549324 v 4.905107 h 2.855431 v 3.27545 h -2.855431 v 9.293883 q 0,1.081066 0.274251,1.35536 0.27425,0.258163 1.67776,0.258163 0.209721,0 0.435581,0 0.241979,-0.0161 0.467839,-0.0323 z M 117.29725,21.841224 q 2.22626,2.791392 2.22626,6.599308 0,3.872453 -2.22626,6.631568 -2.22628,2.742993 -6.75946,2.742993 -4.5332,0 -6.75946,-2.742993 -2.22627,-2.759115 -2.22627,-6.631568 0,-3.807916 2.22627,-6.599308 2.22626,-2.791394 6.75946,-2.791394 4.53318,0 6.75946,2.791394 z m -6.7756,1.097194 q -2.01654,0 -3.11355,1.436034 -1.08086,1.4199 -1.08086,4.06608 0,2.646175 1.08086,4.082202 1.09701,1.436037 3.11355,1.436037 2.01655,0 3.09741,-1.436037 1.08087,-1.436027 1.08087,-4.082202 0,-2.64618 -1.08087,-4.06608 -1.08086,-1.436034 -3.09741,-1.436034 z m 27.0217,-1.436034 q 2.12947,2.275065 2.12947,6.679985 0,4.646942 -2.0972,7.083358 -2.08108,2.436416 -5.37208,2.436416 -2.0972,0 -3.48459,-1.048793 -0.75822,-0.580861 -1.48417,-1.69419 v 9.164803 h -4.54933 v -24.5094 h 4.40414 v 2.597771 q 0.74208,-1.145601 1.58097,-1.807146 1.53257,-1.17787 3.64591,-1.17787 3.08128,0 5.22688,2.275066 z m -2.61344,6.905875 q 0,-2.03304 -0.93567,-3.598155 -0.91955,-1.565117 -3.00063,-1.565117 -2.50051,0 -3.43618,2.371877 -0.48398,1.258549 -0.48398,3.194771 0,3.065692 1.62938,4.308112 0.96793,0.726084 2.29078,0.726084 1.91976,0 2.91996,-1.484441 1.01634,-1.484442 1.01634,-3.953131 z m 12.79297,-8.793696 v 17.587386 h -4.66226 V 19.614563 Z m 0,-6.341141 v 4.243562 h -4.66226 v -4.243562 z m 20.11704,23.928527 h -5.72699 l -3.03288,-5.276218 -3.04902,5.276218 h -5.58179 l 6.00123,-8.90664 -5.74312,-8.648476 h 5.6302 l 2.93609,5.09873 2.87156,-5.09873 h 5.46886 l -5.77537,8.567799 z"
         id="text8-4"
         aria-label="ntopix" />
    </g>
  </g>
</svg>
