<?xml version="1.0" encoding="UTF-8" standalone="no"?>
<!-- Created with Inkscape (http://www.inkscape.org/) -->

<svg
   width="200mm"
   height="200mm"
   viewBox="0 0 200 200"
   version="1.1"
   id="svg1"
   sodipodi:docname="logo.svg"
   inkscape:version="1.4.2 (ebf0e940, 2025-05-08)"
   xmlns:inkscape="http://www.inkscape.org/namespaces/inkscape"
   xmlns:sodipodi="http://sodipodi.sourceforge.net/DTD/sodipodi-0.dtd"
   xmlns:xlink="http://www.w3.org/1999/xlink"
   xmlns="http://www.w3.org/2000/svg"
   xmlns:svg="http://www.w3.org/2000/svg">
  <sodipodi:namedview
     id="namedview1"
     pagecolor="#ffffff"
     bordercolor="#bbbbbb"
     borderopacity="1"
     inkscape:showpageshadow="false"
     inkscape:pageopacity="0"
     inkscape:pagecheckerboard="false"
     inkscape:deskcolor="#d1d1d1"
     inkscape:document-units="mm"
     showborder="true"
     labelstyle="default"
     showguides="true"
     inkscape:zoom="1.4655432"
     inkscape:cx="231.65473"
     inkscape:cy="553.03728"
     inkscape:window-width="1952"
     inkscape:window-height="1250"
     inkscape:window-x="2143"
     inkscape:window-y="34"
     inkscape:window-maximized="0"
     inkscape:current-layer="layer1" />
  <defs
     id="defs1">
    <linearGradient
       id="linearGradient32"
       inkscape:collect="always">
      <stop
         style="stop-color:#ca00ff;stop-opacity:1;"
         offset="0"
         id="stop32" />
      <stop
         style="stop-color:#ff1500;stop-opacity:1;"
         offset="1"
         id="stop33" />
    </linearGradient>
    <linearGradient
       id="linearGradient30"
       inkscape:collect="always">
      <stop
         style="stop-color:#ca00ff;stop-opacity:1;"
         offset="0"
         id="stop30" />
      <stop
         style="stop-color:#ca00ff;stop-opacity:1;"
         offset="1"
         id="stop31" />
    </linearGradient>
    <linearGradient
       id="linearGradient28"
       inkscape:collect="always">
      <stop
         style="stop-color:#7612ff;stop-opacity:1;"
         offset="0"
         id="stop28" />
      <stop
         style="stop-color:#ae12ff;stop-opacity:1;"
         offset="1"
         id="stop29" />
    </linearGradient>
    <rect
       x="528.31889"
       y="509.99911"
       width="125.28367"
       height="271.84194"
       id="rect19" />
    <linearGradient
       id="linearGradient7"
       inkscape:collect="always">
      <stop
         style="stop-color:#d405ff;stop-opacity:1;"
         offset="0"
         id="stop7" />
      <stop
         style="stop-color:#7612ff;stop-opacity:1;"
         offset="1"
         id="stop8" />
    </linearGradient>
    <linearGradient
       inkscape:collect="always"
       xlink:href="#linearGradient7"
       id="linearGradient9"
       gradientUnits="userSpaceOnUse"
       gradientTransform="matrix(0.09815316,-0.00120591,0.00120591,0.09815316,36.643368,75.600025)"
       x1="33.014538"
       y1="51.306561"
       x2="163.74712"
       y2="149.82063" />
    <linearGradient
       inkscape:collect="always"
       xlink:href="#linearGradient7"
       id="linearGradient16"
       gradientUnits="userSpaceOnUse"
       gradientTransform="matrix(0.09815316,-0.00120591,0.00120591,0.09815316,36.64179,103.85314)"
       x1="33.014538"
       y1="51.306561"
       x2="163.74712"
       y2="149.82063" />
    <linearGradient
       inkscape:collect="always"
       xlink:href="#linearGradient7"
       id="linearGradient19"
       gradientUnits="userSpaceOnUse"
       gradientTransform="matrix(0.09815316,-0.00120591,0.00120591,0.09815316,61.743016,2.6127501)"
       x1="33.014538"
       y1="51.306561"
       x2="163.74712"
       y2="149.82063" />
    <linearGradient
       inkscape:collect="always"
       xlink:href="#linearGradient7"
       id="linearGradient21"
       gradientUnits="userSpaceOnUse"
       gradientTransform="matrix(0.09815316,-0.00120591,0.00120591,0.09815316,36.469085,26.824557)"
       x1="33.014538"
       y1="51.306561"
       x2="163.74712"
       y2="149.82063" />
    <linearGradient
       inkscape:collect="always"
       xlink:href="#linearGradient28"
       id="linearGradient29"
       x1="25.593287"
       y1="124.4912"
       x2="17.475317"
       y2="124.4912"
       gradientUnits="userSpaceOnUse"
       gradientTransform="translate(-0.0669204,0.18410541)" />
    <linearGradient
       inkscape:collect="always"
       xlink:href="#linearGradient32"
       id="linearGradient33"
       x1="76.033681"
       y1="167.32602"
       x2="117.82631"
       y2="167.32602"
       gradientUnits="userSpaceOnUse"
       gradientTransform="translate(-9.0276018,-13.177961)" />
    <linearGradient
       inkscape:collect="always"
       xlink:href="#linearGradient30"
       id="linearGradient35"
       gradientUnits="userSpaceOnUse"
       x1="58.113257"
       y1="166.20808"
       x2="73.86376"
       y2="166.20808"
       gradientTransform="translate(-9.0268011,-13.17913)" />
  </defs>
  <g
     inkscape:label="Layer 1"
     inkscape:groupmode="layer"
     id="layer1">
    <g
       id="g23"
       transform="translate(-2.1741766,-3.2951442)">
      <path
         id="path1-0"
         style="baseline-shift:baseline;display:inline;overflow:visible;vector-effect:none;fill:url(#linearGradient9);stroke-width:0.0981606;stroke-linecap:round;stroke-linejoin:round;enable-background:accumulate;stop-color:#000000"
         d="m 46.482537,77.420059 c -4.331066,0.05321 -7.831164,3.640385 -7.777952,7.971445 0.0045,0.363662 0.03388,0.721438 0.08652,1.071778 l 2.884472,-0.810798 0.07305,-0.0205 c -0.0062,-0.09183 -0.01,-0.184421 -0.01111,-0.277714 -0.03307,-2.691942 2.090292,-4.868132 4.782239,-4.901205 2.691948,-0.03307 4.868138,2.090292 4.901211,4.782234 0.03307,2.691947 -2.090292,4.868147 -4.78224,4.90121 -0.0944,0.0012 -0.188193,-6.88e-4 -0.281251,-0.0045 l -0.01819,0.07143 -0.74052,2.905306 c 0.352684,0.04437 0.712314,0.06505 1.077229,0.06057 4.331061,-0.05321 7.831107,-3.640331 7.777895,-7.971404 -0.05321,-4.331061 -3.640331,-7.831159 -7.971392,-7.777947 z m 0.09458,7.877463 -3.790113,1.065622 -3.790114,1.065632 1.651365,1.611275 -2.18912,2.243583 2.122867,2.071336 2.189122,-2.243522 1.861573,1.816377 0.972235,-3.815152 z"
         inkscape:transform-center-x="0.11379902"
         inkscape:transform-center-y="0.08621341" />
      <text
         xml:space="preserve"
         style="font-style:normal;font-variant:normal;font-weight:normal;font-stretch:normal;font-size:14.3297px;line-height:1.25;font-family:'Noto Sans Linear A';-inkscape-font-specification:'Noto Sans Linear A';stroke-width:0.358243"
         x="55.632576"
         y="90.124557"
         id="text8-4"
         transform="scale(0.99991132,1.0000887)"><tspan
           sodipodi:role="line"
           id="tspan8-0"
           style="font-style:normal;font-variant:normal;font-weight:bold;font-stretch:normal;font-family:Helvetica;-inkscape-font-specification:'Helvetica Bold';stroke-width:0.358243"
           x="55.632576"
           y="90.124557">ntopix</tspan></text>
    </g>
    <g
       id="g30"
       transform="translate(31.524914,7.1890073)">
      <path
         id="path1-0-8-38"
         style="baseline-shift:baseline;display:inline;overflow:visible;vector-effect:none;fill:url(#linearGradient29);stroke-width:0.0981606;stroke-linecap:round;stroke-linejoin:round;enable-background:accumulate;stop-color:#000000"
         d="m 25.526372,120.64658 -7.580227,2.13125 1.651365,1.61128 -2.18912,2.24358 2.122867,2.07134 2.189122,-2.24353 1.861573,1.81638 z"
         inkscape:transform-center-x="0.11379902"
         inkscape:transform-center-y="0.08621341"
         sodipodi:nodetypes="cccccccc" />
      <path
         id="path1-0-8-3"
         style="baseline-shift:baseline;display:inline;overflow:visible;vector-effect:none;fill:#001200;fill-opacity:1;stroke-width:0.0981606;stroke-linecap:round;stroke-linejoin:round;enable-background:accumulate;stop-color:#000000"
         d="m 25.464837,112.63709 c -4.331066,0.0532 -7.831164,3.64038 -7.777952,7.97144 0.0045,0.36366 0.03388,0.72144 0.08652,1.07178 0.985845,-0.27708 1.971661,-0.55427 2.957522,-0.8313 -0.0062,-0.0918 -0.01,-0.18442 -0.01111,-0.27771 -0.03307,-2.69195 2.090292,-4.86814 4.782239,-4.90121 2.691948,-0.0331 4.868138,2.09029 4.901211,4.78223 0.03307,2.69195 -2.090292,4.86815 -4.78224,4.90121 -0.0944,10e-4 -0.188193,-6.8e-4 -0.281251,-0.005 -0.252887,0.99224 -0.505804,1.98447 -0.75871,2.97671 0.352684,0.0444 0.712314,0.0651 1.077229,0.0606 4.331061,-0.0532 7.831107,-3.64033 7.777895,-7.9714 -0.05321,-4.33106 -3.640331,-7.83116 -7.971392,-7.77795 z"
         inkscape:transform-center-x="0.11379902"
         inkscape:transform-center-y="0.08621341"
         sodipodi:nodetypes="ccccccsccccscc" />
    </g>
    <text
       xml:space="preserve"
       style="font-style:normal;font-variant:normal;font-weight:normal;font-stretch:normal;font-size:14.3297px;line-height:1.25;font-family:'Noto Sans Linear A';-inkscape-font-specification:'Noto Sans Linear A';stroke-width:0.358243"
       x="66.186241"
       y="132.50891"
       id="text8-4-4"
       transform="scale(0.99991131,1.0000887)"><tspan
         sodipodi:role="line"
         id="tspan8-0-52"
         style="font-style:normal;font-variant:normal;font-weight:bold;font-stretch:normal;font-family:Helvetica;-inkscape-font-specification:'Helvetica Bold';stroke-width:0.358243"
         x="66.186241"
         y="132.50891">ntopix</tspan></text>
    <path
       id="path1-0-8-38-7"
       style="baseline-shift:baseline;display:inline;overflow:visible;vector-effect:none;fill:#001200;fill-opacity:1;stroke-width:0.0981606;stroke-linecap:round;stroke-linejoin:round;enable-background:accumulate;stop-color:#000000"
       d="m 56.926542,153.16436 -7.580227,2.13125 1.651365,1.61128 -2.18912,2.24358 2.122867,2.07134 2.189122,-2.24353 1.861573,1.81638 z"
       inkscape:transform-center-x="0.11379902"
       inkscape:transform-center-y="0.08621341"
       sodipodi:nodetypes="cccccccc" />
    <path
       id="path1-0-8-3-0"
       style="baseline-shift:baseline;display:inline;overflow:visible;vector-effect:none;fill:url(#linearGradient35);stroke-width:0.0981606;stroke-linecap:round;stroke-linejoin:round;enable-background:accumulate;stop-color:#000000"
       d="m 56.865007,145.15487 c -4.331066,0.0532 -7.831164,3.64038 -7.777952,7.97144 0.0045,0.36366 0.03388,0.72144 0.08652,1.07178 0.985845,-0.27708 1.971661,-0.55427 2.957522,-0.8313 -0.0062,-0.0918 -0.01,-0.18442 -0.01111,-0.27771 -0.03307,-2.69195 2.090292,-4.86814 4.782239,-4.90121 2.691948,-0.0331 4.868138,2.09029 4.901211,4.78223 0.03307,2.69195 -2.090292,4.86815 -4.78224,4.90121 -0.0944,0.001 -0.188193,-6.8e-4 -0.281251,-0.005 -0.252887,0.99224 -0.505804,1.98447 -0.75871,2.97671 0.352684,0.0444 0.712314,0.0651 1.077229,0.0606 4.331061,-0.0532 7.831107,-3.64033 7.777895,-7.9714 -0.05321,-4.33106 -3.640331,-7.83116 -7.971392,-7.77795 z"
       inkscape:transform-center-x="0.11379902"
       inkscape:transform-center-y="0.08621341"
       sodipodi:nodetypes="ccccccsccccscc" />
    <text
       xml:space="preserve"
       style="font-style:normal;font-variant:normal;font-weight:normal;font-stretch:normal;font-size:14.3297px;line-height:1.25;font-family:'Noto Sans Linear A';-inkscape-font-specification:'Noto Sans Linear A';fill:url(#linearGradient33);stroke-width:0.358243"
       x="66.061493"
       y="157.83543"
       id="text8-4-4-9"
       transform="scale(0.99991131,1.0000887)"><tspan
         sodipodi:role="line"
         id="tspan8-0-52-7"
         style="font-style:normal;font-variant:normal;font-weight:bold;font-stretch:normal;font-family:Helvetica;-inkscape-font-specification:'Helvetica Bold';fill:url(#linearGradient33);stroke-width:0.358243"
         x="66.061493"
         y="157.83543">ntopix</tspan></text>
    <g
       id="g25">
      <path
         id="path1-0-70"
         style="baseline-shift:baseline;display:inline;overflow:visible;vector-effect:none;fill:url(#linearGradient21);stroke-width:0.0981606;stroke-linecap:round;stroke-linejoin:round;enable-background:accumulate;stop-color:#000000"
         d="m 46.308255,28.644591 c -4.33107,0.05321 -7.83117,3.640385 -7.77796,7.971445 0.005,0.36366 0.0339,0.72144 0.0865,1.07178 l 2.88448,-0.8108 0.0731,-0.0205 c -0.006,-0.0918 -0.01,-0.18442 -0.0111,-0.27771 -0.0331,-2.691946 2.09029,-4.868136 4.78223,-4.901209 2.69195,-0.03307 4.86814,2.090292 4.90122,4.782229 0.0331,2.69195 -2.0903,4.86815 -4.78224,4.90121 -0.0944,0.001 -0.1882,-6.8e-4 -0.28126,-0.004 l -0.0182,0.0714 -0.74052,2.9053 c 0.35269,0.0444 0.71232,0.065 1.07723,0.0606 4.33106,-0.0532 7.83111,-3.64033 7.7779,-7.9714 -0.0532,-4.331064 -3.64033,-7.831162 -7.97139,-7.77795 z m 0.0946,7.877465 -3.79012,1.06562 -3.79011,1.06563 1.65136,1.61128 -2.18912,2.24358 2.12287,2.07134 2.18912,-2.24353 1.86158,1.81638 0.97223,-3.81515 z"
         inkscape:transform-center-x="0.11379902"
         inkscape:transform-center-y="0.08621341" />
      <text
         xml:space="preserve"
         style="font-style:normal;font-variant:normal;font-weight:normal;font-stretch:normal;font-size:21.6554px;line-height:1.25;font-family:'Noto Sans Linear A';-inkscape-font-specification:'Noto Sans Linear A';stroke-width:0.541385"
         x="70.811241"
         y="44.316639"
         id="text8-4-8"
         transform="scale(0.99991131,1.0000887)"><tspan
           sodipodi:role="line"
           id="tspan8-0-5"
           style="font-style:normal;font-variant:normal;font-weight:bold;font-stretch:normal;font-family:Helvetica;-inkscape-font-specification:'Helvetica Bold';stroke-width:0.541385"
           x="70.811241"
           y="44.316639">topix</tspan></text>
      <text
         xml:space="preserve"
         style="font-style:normal;font-variant:normal;font-weight:normal;font-stretch:normal;font-size:21.6554px;line-height:1.25;font-family:'Noto Sans Linear A';-inkscape-font-specification:'Noto Sans Linear A';fill:#7612ff;fill-opacity:1;stroke-width:0.541385"
         x="54.64782"
         y="44.321209"
         id="text8-4-8-1"
         transform="scale(0.99991131,1.0000887)"><tspan
           sodipodi:role="line"
           id="tspan8-0-5-8"
           style="font-style:normal;font-variant:normal;font-weight:bold;font-stretch:normal;font-family:Helvetica;-inkscape-font-specification:'Helvetica Bold';fill:#7612ff;fill-opacity:1;stroke-width:0.541385"
           x="54.64782"
           y="44.321209">N</tspan></text>
    </g>
    <g
       id="g26">
      <path
         id="path1-0-7"
         style="baseline-shift:baseline;display:inline;overflow:visible;vector-effect:none;fill:url(#linearGradient19);stroke-width:0.0981606;stroke-linecap:round;stroke-linejoin:round;enable-background:accumulate;stop-color:#000000"
         d="m 71.582176,4.4327841 c -4.33106,0.05321 -7.83116,3.640385 -7.77795,7.9714449 0.005,0.363662 0.0339,0.721438 0.0865,1.071778 l 2.88447,-0.810798 0.073,-0.0205 c -0.006,-0.09183 -0.01,-0.184421 -0.0111,-0.277714 -0.0331,-2.6919419 2.0903,-4.8681319 4.78224,-4.9012049 2.69195,-0.03307 4.86814,2.090292 4.90121,4.7822339 0.0331,2.691947 -2.09029,4.868147 -4.78224,4.90121 -0.0944,0.0012 -0.18819,-6.88e-4 -0.28125,-0.0045 l -0.0182,0.07143 -0.74052,2.905306 c 0.35269,0.04437 0.71232,0.06505 1.07723,0.06057 4.33106,-0.05321 7.83111,-3.640331 7.7779,-7.971404 -0.0532,-4.3310609 -3.64033,-7.8311589 -7.97139,-7.7779469 z m 0.0946,7.8774629 -3.79011,1.065622 -3.79011,1.065632 1.65136,1.611275 -2.18912,2.243583 2.12287,2.071336 2.18912,-2.243522 1.86157,1.816377 0.97224,-3.815152 z"
         inkscape:transform-center-x="0.11379902"
         inkscape:transform-center-y="0.08621341" />
      <text
         xml:space="preserve"
         style="font-style:normal;font-variant:normal;font-weight:normal;font-stretch:normal;font-size:14.3297px;line-height:1.25;font-family:'Noto Sans Linear A';-inkscape-font-specification:'Noto Sans Linear A';stroke-width:0.358243"
         x="39.089977"
         y="17.143755"
         id="text8-4-9"
         transform="scale(0.99991131,1.0000887)"><tspan
           sodipodi:role="line"
           style="font-style:normal;font-variant:normal;font-weight:bold;font-stretch:normal;font-family:Helvetica;-inkscape-font-specification:'Helvetica Bold';stroke-width:0.358243"
           x="39.089977"
           y="17.143755"
           id="tspan20">ont     pix</tspan></text>
    </g>
    <g
       id="g24"
       transform="translate(-1.4520325,-53.241193)">
      <text
         xml:space="preserve"
         style="font-style:normal;font-variant:normal;font-weight:normal;font-stretch:normal;font-size:14.3855px;line-height:1.25;font-family:'Noto Sans Linear A';-inkscape-font-specification:'Noto Sans Linear A';stroke-width:0.359638"
         x="55.452866"
         y="118.22572"
         id="text8-4-0"
         transform="scale(0.99991131,1.0000887)"><tspan
           sodipodi:role="line"
           id="tspan8-0-6"
           style="font-style:normal;font-variant:normal;font-weight:bold;font-stretch:normal;font-family:'Open Sans';-inkscape-font-specification:'Open Sans Bold';stroke-width:0.359638"
           x="55.452866"
           y="118.22572">ntopix</tspan></text>
      <path
         id="path1-0-1"
         style="baseline-shift:baseline;display:inline;overflow:visible;vector-effect:none;fill:url(#linearGradient16);stroke-width:0.0981606;stroke-linecap:round;stroke-linejoin:round;enable-background:accumulate;stop-color:#000000"
         d="m 46.480959,105.67318 c -4.331066,0.0532 -7.831164,3.64038 -7.777952,7.97144 0.0045,0.36366 0.03388,0.72144 0.08652,1.07178 l 2.884472,-0.8108 0.07305,-0.0205 c -0.0062,-0.0918 -0.01,-0.18442 -0.01111,-0.27771 -0.03307,-2.69195 2.090292,-4.86813 4.782239,-4.90121 2.691948,-0.0331 4.868138,2.09029 4.901211,4.78223 0.03307,2.69195 -2.090292,4.86815 -4.78224,4.90121 -0.0944,0.001 -0.188193,-6.8e-4 -0.281251,-0.004 l -0.01819,0.0714 -0.74052,2.9053 c 0.352684,0.0444 0.712314,0.065 1.077229,0.0606 4.331061,-0.0532 7.831107,-3.64033 7.777895,-7.9714 -0.05321,-4.33106 -3.640331,-7.83116 -7.971392,-7.77795 z m 0.09458,7.87746 -3.790113,1.06562 -3.790114,1.06563 1.651365,1.61128 -2.18912,2.24358 2.122867,2.07134 2.189122,-2.24353 1.861573,1.81638 0.972235,-3.81515 z"
         inkscape:transform-center-x="0.11379902"
         inkscape:transform-center-y="0.08621341" />
    </g>
    <text
       xml:space="preserve"
       transform="scale(0.26458333)"
       id="text19"
       style="font-size:40px;line-height:1.25;font-family:sans-serif;white-space:pre;shape-inside:url(#rect19);display:inline" />
  </g>
</svg>
