<svg xmlns="http://www.w3.org/2000/svg" viewBox="0 0 12 12">
  <defs>
    <linearGradient id="g" x1="0%" y1="100%" x2="100%" y2="100%">
      <stop offset="0%"  stop-color="#8800ff"/>
      <stop offset="100%" stop-color="#880088"/>
    </linearGradient>
  </defs>
  <g transform="scale(1.4, 1.4) translate(-1.8, -2.8)">
    <path fill="url(#g)"
      d="m 6.1810181,3.0473592 c -2.2129772,0.027183 -4.0011057,1.8601644 -3.9739177,4.0731364 0.00133,0.1217882 0.0079,0.2422359 0.020154,0.3612183 L 3.7573934,7.0724365 C 3.76807,5.9148373 4.6342792,4.6163717 6.2001383,4.5971354 7.5755954,4.5802214 8.687476,5.6654568 8.7043783,7.0409139 8.7242097,8.6536433 7.3743316,9.5397023 6.2275269,9.544637 l -0.4087606,1.529106 c 0.1515051,0.01561 0.3051851,0.02259 0.4609538,0.02067 C 8.492696,11.06723 10.281341,9.2342539 10.254154,7.0212769 10.226971,4.8083049 8.39399,3.0201714 6.1810181,3.0473592 Z"
    />
    <path fill="#ffffff"
      d="m 6.2297617,7.0719163 -3.886198,1.0414403 0.8336249,0.8335649 -1.1324992,1.1325765 1.0716417,1.071568 1.1324992,-1.132551 0.9397351,0.939669 z"
    />
  </g>
</svg>
